<?xml version="1.0" encoding="iso-8859-1"?>
<!-- Generator: Adobe Illustrator 18.1.1, SVG Export Plug-In . SVG Version: 6.00 Build 0)  -->
<svg version="1.1" id="Capa_1" xmlns="http://www.w3.org/2000/svg" xmlns:xlink="http://www.w3.org/1999/xlink" x="0px" y="0px"
	 viewBox="0 0 18.5 18.5" style="enable-background:new 0 0 18.5 18.5;" xml:space="preserve">
<g>
	<g>
		<path style="fill:#030104;" d="M0.381,4.013h8.29l1.669-1.739c0,0-7.663,0-8.923,0s-1.05,0.908-1.05,0.908L0.381,4.013z"/>
		<path style="fill:#030104;" d="M17.796,2.169h-5.304c-0.2,0-0.392,0.086-0.524,0.237L9.9,4.744H0.704C0.315,4.744,0,5.059,0,5.448
			v10.181c0,0.389,0.315,0.703,0.704,0.703h17.093c0.389,0,0.703-0.314,0.703-0.703V2.872C18.499,2.483,18.185,2.169,17.796,2.169z
			 M17.092,14.926H1.406V6.152h8.811c0.201,0,0.393-0.087,0.526-0.238l2.067-2.339h4.281L17.092,14.926L17.092,14.926z"/>
		<path style="fill:#030104;" d="M11.838,12.705H6.487v-1.749H5.461v2.263c0,0.283,0.229,0.514,0.514,0.514h6.377
			c0.285,0,0.514-0.23,0.514-0.514v-2.263h-1.027L11.838,12.705L11.838,12.705z"/>
		<path style="fill:#030104;" d="M7.598,10.46l1.472,1.778c0,0,0.12,0.143,0.247,0.014c0.173-0.174,1.427-1.836,1.427-1.836
			s0.224-0.223-0.071-0.223c-0.297,0-0.767,0-0.767,0s0-0.125,0-0.322c0-0.604,0-1.783,0-2.232c0,0,0.003-0.105-0.135-0.105
			c-0.135,0-0.975,0-1.167,0c-0.189,0-0.157,0.125-0.157,0.125c0,0.464,0,1.603,0,2.228c0,0.219,0,0.362,0,0.362s-0.586,0-0.828,0
			C7.374,10.249,7.598,10.46,7.598,10.46z"/>
	</g>
</g>
<g>
</g>
<g>
</g>
<g>
</g>
<g>
</g>
<g>
</g>
<g>
</g>
<g>
</g>
<g>
</g>
<g>
</g>
<g>
</g>
<g>
</g>
<g>
</g>
<g>
</g>
<g>
</g>
<g>
</g>
</svg>
